<svg xmlns="http://www.w3.org/2000/svg" viewBox="0 0 400.89 141.01"><g id="Layer_2" data-name="Layer 2"><g id="Layer_1-2" data-name="Layer 1"><path d="M400.89,141H0V0H400.89ZM2.28,138.73H398.61V2.28H2.28Z"/><path d="M34.32,70.9V42.14h6v4.78a24.2,24.2,0,0,1,4.78-4.24,8.86,8.86,0,0,1,4.78-1.34,9.57,9.57,0,0,1,6.73,2.58,8.15,8.15,0,0,1,2.79,6.2V70.9H53.27v-19a5.23,5.23,0,0,0-5.42-5.4,6.75,6.75,0,0,0-5.27,2.56,9.12,9.12,0,0,0-2.21,6.19V70.9Z"/><path d="M131,45.45l-4.07,3.46a20.65,20.65,0,0,0-2.75-1.65,6.26,6.26,0,0,0-2.74-.56q-3.72,0-3.72,2.65c0,1.26,1.57,2.5,4.72,3.69A18.88,18.88,0,0,1,129.22,57a7.16,7.16,0,0,1,2.07,5.16,7.94,7.94,0,0,1-3,6.15,10.3,10.3,0,0,1-7,2.63q-6.15,0-10.09-5.5L116,63.16a7.68,7.68,0,0,0,5.27,2.37,5.6,5.6,0,0,0,3.32-1A2.83,2.83,0,0,0,126,62.21c0-1.56-1.67-3-5-4.21s-5.64-2.51-6.91-3.79a6.42,6.42,0,0,1-1.92-4.73,7.33,7.33,0,0,1,2.73-5.82,10.13,10.13,0,0,1,6.83-2.32Q125.89,41.34,131,45.45Z"/><path d="M159.21,61.56v6.76a18.79,18.79,0,0,1-9.08,2.58,14.71,14.71,0,0,1-10.52-4.36,13.62,13.62,0,0,1-4.52-10.1,14.31,14.31,0,0,1,4.5-10.81,15.7,15.7,0,0,1,11.28-4.29,19.36,19.36,0,0,1,8.34,2V50a16.73,16.73,0,0,0-8.72-2.85,9.6,9.6,0,0,0-6.65,2.58,7.91,7.91,0,0,0-2.85,6A9.13,9.13,0,0,0,150.21,65Q154.14,65,159.21,61.56Z"/><path d="M194.12,57.25H169.37a9.29,9.29,0,0,0,3.67,6.3,10.75,10.75,0,0,0,6.24,2A11,11,0,0,0,188,61.36l4.46,3.26A16.38,16.38,0,0,1,179,70.9a14.87,14.87,0,0,1-10.83-4.28A14.26,14.26,0,0,1,163.81,56a14,14,0,0,1,4.41-10.3,15.34,15.34,0,0,1,21.5.07A15.25,15.25,0,0,1,194.12,57.25ZM170,52.54h17.72q-3-5.77-8.72-5.77A9.25,9.25,0,0,0,170,52.54Z"/><path d="M200,70.9V42.14h6v4.78a24.48,24.48,0,0,1,4.78-4.24,8.86,8.86,0,0,1,4.78-1.34,9.55,9.55,0,0,1,6.73,2.58,8.13,8.13,0,0,1,2.8,6.2V70.9H219v-19a5.23,5.23,0,0,0-5.41-5.4,6.77,6.77,0,0,0-5.28,2.56,9.17,9.17,0,0,0-2.21,6.19V70.9Z"/><path d="M234.65,33.71h6.12v8.38h6v5.55h-6V70.9h-6.12V47.64h-4.82V42h4.82Z"/><path d="M95.39,47.06q-2.06,2.41-4.22,4.64l-.54-1.15L85.35,39.18,80.12,50.55l-1.94,4.2-2.28,5-1.31,2.85L73,66a74.17,74.17,0,0,1-8.3,4.19L85.36,25.54Z"/><path d="M106.51,70.9H100.1l-3.87-8.33-1-2.09c1.55-1.18,3.11-2.43,4.65-3.75Z"/><path d="M107.14,47A101.12,101.12,0,0,1,85.73,64.37,76.39,76.39,0,0,1,63,73.13,80.83,80.83,0,0,0,84.27,60.75a97.47,97.47,0,0,0,17.86-18.88Z"/><path d="M108.34,53.86,95.73,42l5.59-1.71,7.24-2.2Z"/><path d="M250.11,56.1a4,4,0,0,1,1.21-2.9,4.13,4.13,0,0,1,7,2.9,4.12,4.12,0,1,1-8.24,0Z"/><path d="M358.76,32.37A4,4,0,0,1,360,29.44a4.18,4.18,0,0,1,7.12,2.93,4.17,4.17,0,1,1-8.34,0Z"/><path d="M288.34,41.9h6.12v29h-6.12V65.14c-3,4.38-6.67,6.57-11.07,6.57a12.71,12.71,0,0,1-9.79-4.5,15.71,15.71,0,0,1-4.06-10.93,15.38,15.38,0,0,1,4.09-10.63,12.56,12.56,0,0,1,9.62-4.56A12.19,12.19,0,0,1,283.6,43a13.19,13.19,0,0,1,4.74,4.85Zm.85,14.59a9.21,9.21,0,0,0-2.86-6.8,9.6,9.6,0,0,0-13.59,0,8.93,8.93,0,0,0-2.89,6.61,9.64,9.64,0,0,0,2.82,7,9.2,9.2,0,0,0,6.83,2.88,9.78,9.78,0,0,0,9.69-9.67Z"/><path d="M325.12,41.9h6V69.75a14.32,14.32,0,0,1-4.24,10.45,13.84,13.84,0,0,1-10.24,4.31A15.21,15.21,0,0,1,308.21,82a14.25,14.25,0,0,1-5.62-7.54h6.33a8.82,8.82,0,0,0,7.91,4.71,7.9,7.9,0,0,0,5.87-2.48,8.18,8.18,0,0,0,2.42-6V65.28q-4.42,6.43-11.18,6.43a12.67,12.67,0,0,1-9.68-4.58,15.66,15.66,0,0,1-4.13-10.85,15.46,15.46,0,0,1,4-10.72,12.49,12.49,0,0,1,9.58-4.47q7.17,0,11.39,6.93ZM326,56.35a9.14,9.14,0,0,0-2.83-6.82,9.69,9.69,0,0,0-7-2.74,9.39,9.39,0,0,0-6.75,2.85,8.92,8.92,0,0,0-2.91,6.57,9.55,9.55,0,0,0,2.88,7,9.29,9.29,0,0,0,6.85,2.92A9.76,9.76,0,0,0,326,56.35Z"/><path d="M344.85,41.9v6a18.73,18.73,0,0,1,4-5.19,7.82,7.82,0,0,1,5.08-1.6,11.27,11.27,0,0,1,2.54.42l-1.87,6.12a15.63,15.63,0,0,0-2.32-.35,6.91,6.91,0,0,0-5.18,2.16,7.44,7.44,0,0,0-2.1,5.4V70.91h-6.11v-29Z"/><path d="M358.22,32.37a4.44,4.44,0,0,1,1.41-3.28A4.58,4.58,0,0,1,363,27.7a4.66,4.66,0,0,1,3.28,8A4.52,4.52,0,0,1,363,37.05a4.64,4.64,0,0,1-3.34-1.37A4.46,4.46,0,0,1,358.22,32.37Zm1.72,9.53H366v29h-6.05Z"/><rect x="34.32" y="80.06" width="260.88" height="1"/><rect x="335.99" y="79.06" width="30.06" height="1"/><path d="M36.25,89.46h1.59v15.59H36.25Zm1.53,14.15h3.63a4.78,4.78,0,0,0,3.34-1,3.88,3.88,0,0,0,1.11-3V95a3.91,3.91,0,0,0-1.11-3,4.83,4.83,0,0,0-3.34-1H37.78V89.46h3.57a8.26,8.26,0,0,1,3.4.62,4.23,4.23,0,0,1,2,1.86,6.47,6.47,0,0,1,.68,3.11v4.42a6.43,6.43,0,0,1-.68,3.1,4.4,4.4,0,0,1-2,1.86,8.28,8.28,0,0,1-3.41.62H37.78Z"/><path d="M53.37,105.05H51.78V89.46h1.59Z"/><path d="M69.23,97.09v2.29a7.44,7.44,0,0,1-.63,3.25,4.14,4.14,0,0,1-1.87,1.94,6.76,6.76,0,0,1-3.13.64,7.21,7.21,0,0,1-3.16-.61,4.07,4.07,0,0,1-1.9-1.83,6.6,6.6,0,0,1-.63-3v-4.6a7.37,7.37,0,0,1,.63-3.24A4.12,4.12,0,0,1,60.41,90a6.76,6.76,0,0,1,3.13-.65,6.28,6.28,0,0,1,2.68.52,4.45,4.45,0,0,1,1.85,1.54,6.59,6.59,0,0,1,1,2.57H67.37a5.52,5.52,0,0,0-.8-1.78,3.32,3.32,0,0,0-1.27-1.06,4.22,4.22,0,0,0-1.76-.35,4.62,4.62,0,0,0-2.25.49A3.08,3.08,0,0,0,60,92.69a5.73,5.73,0,0,0-.45,2.43v4.6A4.89,4.89,0,0,0,60,102a2.9,2.9,0,0,0,1.36,1.34,5.15,5.15,0,0,0,2.28.45,4.67,4.67,0,0,0,2.21-.46,2.87,2.87,0,0,0,1.3-1.42,6.09,6.09,0,0,0,.44-2.48v-.89H63.66V97.09Z"/><path d="M75.14,105.05H73.55V89.46h1.59Z"/><path d="M78.69,89.46H90V90.9H78.69Zm4.87.64h1.59v15H83.56Z"/><path d="M96.18,89.46h1.93L104,105.05h-1.77l-5.12-14-5.11,14H90.26ZM93,99.83h8.45v1.44H93Z"/><path d="M107,89.46h1.59v15.59H107Zm1.13,14.15h9.19v1.44h-9.19Z"/><path d="M139.19,89.46h1.67v15.59h-1.59V91.66l.17.69-4.84,10.53h-1.13l-4.84-10.32.17-.9v13.39h-1.6V89.46h1.67L134,100.72Z"/><path d="M149.56,89.46h1.92l5.92,15.59h-1.76l-5.12-14-5.12,14h-1.76Zm-3.19,10.37h8.45v1.44h-8.45Z"/><path d="M160.4,89.45H162v15.6H160.4Zm1,7.57h5.48a3.21,3.21,0,0,0,1.58-.38,2.6,2.6,0,0,0,1.05-1.08,3.56,3.56,0,0,0,.38-1.6,3.33,3.33,0,0,0-.37-1.61,2.6,2.6,0,0,0-1.05-1.08,3.22,3.22,0,0,0-1.59-.38h-5.48V89.45h5.4a5.17,5.17,0,0,1,2.44.56,4,4,0,0,1,1.64,1.58,5.11,5.11,0,0,1,0,4.73,4,4,0,0,1-1.64,1.58,5.2,5.2,0,0,1-2.44.56h-5.4Zm5.15,1,1.47-.5,4.11,7.57h-1.9Z"/><path d="M175.72,89.46h1.59v15.59h-1.59Zm.77,10.84,8.81-10.84h2l-10.2,12ZM181,96.73l.92-1.6,6.08,9.92h-1.9Z"/><path d="M191,89.46h1.59v15.59H191Zm1.1,0h9.22V90.9h-9.22Zm0,7.13h8V98h-8Zm0,7h9.22v1.44h-9.22Z"/><path d="M203.34,89.46h11.34V90.9H203.34Zm4.88.64h1.59v15h-1.59Z"/><path d="M219.38,105.05h-1.59V89.46h1.59Z"/><path d="M224.25,89.46h1.6l9.33,14.05-.65-.43V89.46h1.59V105H234.5L225,90.89l.86.61V105h-1.59Z"/><path d="M251.65,97.09v2.29a7.44,7.44,0,0,1-.63,3.25,4.14,4.14,0,0,1-1.87,1.94,6.79,6.79,0,0,1-3.13.64,7.21,7.21,0,0,1-3.16-.61,4.07,4.07,0,0,1-1.9-1.83,6.6,6.6,0,0,1-.63-3v-4.6a7.37,7.37,0,0,1,.63-3.24A4.12,4.12,0,0,1,242.83,90,6.76,6.76,0,0,1,246,89.3a6.31,6.31,0,0,1,2.68.52,4.45,4.45,0,0,1,1.85,1.54,6.75,6.75,0,0,1,1,2.57h-1.72a5.52,5.52,0,0,0-.8-1.78,3.32,3.32,0,0,0-1.27-1.06,4.22,4.22,0,0,0-1.76-.35,4.62,4.62,0,0,0-2.25.49,3.08,3.08,0,0,0-1.34,1.46,5.73,5.73,0,0,0-.45,2.43v4.6a4.89,4.89,0,0,0,.46,2.26,2.9,2.9,0,0,0,1.36,1.34,5.15,5.15,0,0,0,2.28.45,4.67,4.67,0,0,0,2.21-.46,2.91,2.91,0,0,0,1.3-1.42,6.09,6.09,0,0,0,.44-2.48v-.89h-3.89V97.09Z"/><path d="M265.13,105a8.68,8.68,0,0,1-1.94-.65,7.83,7.83,0,0,1-1.68-1.07l1-1.22a7.09,7.09,0,0,0,2.22,1.29,8,8,0,0,0,2.64.42,5.52,5.52,0,0,0,3.2-.79,2.57,2.57,0,0,0,1.13-2.23h0a2,2,0,0,0-.49-1.43,3.11,3.11,0,0,0-1.27-.8,14.11,14.11,0,0,0-2-.49l-.07,0h-.08l-.32-.07a20.55,20.55,0,0,1-2.71-.65A3.86,3.86,0,0,1,263,96.13a3.32,3.32,0,0,1-.71-2.25h0a4.37,4.37,0,0,1,.67-2.47,4.15,4.15,0,0,1,1.95-1.56A7.9,7.9,0,0,1,268,89.3a7.27,7.27,0,0,1,1.68.19,8.38,8.38,0,0,1,1.65.54,10.36,10.36,0,0,1,1.61.9L272,92.14a8.75,8.75,0,0,0-2-1,6,6,0,0,0-2-.35,5.08,5.08,0,0,0-3.05.8,2.67,2.67,0,0,0-1.08,2.27h0a1.79,1.79,0,0,0,.54,1.38,3.33,3.33,0,0,0,1.34.76,21.72,21.72,0,0,0,2.19.51l.1,0,.1,0,.13,0,.13,0a15.31,15.31,0,0,1,2.52.69,3.88,3.88,0,0,1,1.67,1.2,3.4,3.4,0,0,1,.67,2.22v0a4.17,4.17,0,0,1-.7,2.44,4.28,4.28,0,0,1-2,1.54,8.66,8.66,0,0,1-3.19.53A11.1,11.1,0,0,1,265.13,105Z"/><path d="M276.78,89.46h1.59v15.59h-1.59Zm1.09,0h9.23V90.9h-9.23Zm0,7.13h8V98h-8Zm0,7h9.23v1.44h-9.23Z"/><path d="M290.87,89.45h1.59v15.6h-1.59Zm1,7.57h5.48a3.24,3.24,0,0,0,1.58-.38,2.6,2.6,0,0,0,1-1.08,3.56,3.56,0,0,0,.38-1.6,3.44,3.44,0,0,0-.37-1.61,2.6,2.6,0,0,0-1.05-1.08,3.25,3.25,0,0,0-1.59-.38h-5.48V89.45h5.39a5.18,5.18,0,0,1,2.45.56,4,4,0,0,1,1.64,1.58,5.11,5.11,0,0,1,0,4.73,4,4,0,0,1-1.64,1.58,5.24,5.24,0,0,1-2.45.56h-5.39ZM297,98l1.47-.5,4.11,7.57h-1.9Z"/><path d="M304.42,89.46h1.68l4.63,13.4,4.62-13.4H317l-5.56,15.59H310Z"/><path d="M322,105.05h-1.59V89.46H322Z"/><path d="M329.16,104.49a5,5,0,0,1-2-2,6.51,6.51,0,0,1-.69-3.06V95.12a6.5,6.5,0,0,1,.69-3.05,5,5,0,0,1,2-2,5.72,5.72,0,0,1,2.93-.73,5.94,5.94,0,0,1,2.54.55,5.24,5.24,0,0,1,1.94,1.55,5.53,5.53,0,0,1,1.05,2.32H336a3.94,3.94,0,0,0-.86-1.55,4.67,4.67,0,0,0-1.41-1.06,4.13,4.13,0,0,0-3.77.18,3.64,3.64,0,0,0-1.4,1.53,5,5,0,0,0-.5,2.3V99.4a5,5,0,0,0,.5,2.3,3.64,3.64,0,0,0,1.4,1.53,4,4,0,0,0,2.1.54,4.07,4.07,0,0,0,1.67-.35,4.27,4.27,0,0,0,1.41-1,3.94,3.94,0,0,0,.86-1.6h1.59a5.37,5.37,0,0,1-1.06,2.32,5.24,5.24,0,0,1-1.94,1.55,6.21,6.21,0,0,1-5.46-.17Z"/><path d="M341.17,89.46h1.59v15.59h-1.59Zm1.1,0h9.22V90.9h-9.22Zm0,7.13h8V98h-8Zm0,7h9.22v1.44h-9.22Z"/><path d="M357.89,105a8.68,8.68,0,0,1-1.94-.65,7.83,7.83,0,0,1-1.68-1.07l1-1.22a7.09,7.09,0,0,0,2.22,1.29,8,8,0,0,0,2.64.42,5.52,5.52,0,0,0,3.2-.79,2.57,2.57,0,0,0,1.13-2.23h0a2,2,0,0,0-.49-1.43,3.11,3.11,0,0,0-1.27-.8,14.11,14.11,0,0,0-2-.49l-.07,0h-.08l-.32-.07a20.55,20.55,0,0,1-2.71-.65,3.86,3.86,0,0,1-1.73-1.14,3.32,3.32,0,0,1-.71-2.25h0a4.37,4.37,0,0,1,.67-2.47,4.15,4.15,0,0,1,1.95-1.56,7.9,7.9,0,0,1,3.08-.54,7.42,7.42,0,0,1,1.69.19,8.51,8.51,0,0,1,1.64.54,10.36,10.36,0,0,1,1.61.9l-.94,1.21a8.75,8.75,0,0,0-2-1,6,6,0,0,0-2-.35,5.08,5.08,0,0,0-3.05.8,2.67,2.67,0,0,0-1.08,2.27h0a1.79,1.79,0,0,0,.54,1.38,3.33,3.33,0,0,0,1.34.76,21.37,21.37,0,0,0,2.2.51l.09,0,.11,0,.12,0,.13,0a15.31,15.31,0,0,1,2.52.69,3.88,3.88,0,0,1,1.67,1.2,3.4,3.4,0,0,1,.67,2.22v0a4.17,4.17,0,0,1-.7,2.44,4.28,4.28,0,0,1-2,1.54,8.62,8.62,0,0,1-3.19.53A11.1,11.1,0,0,1,357.89,105Z"/></g></g></svg>