<svg xmlns="http://www.w3.org/2000/svg" viewBox="0 0 400.89 141.01"><defs><style>.cls-1,.cls-4{fill:none;stroke:#323530;stroke-miterlimit:10;}.cls-1{stroke-width:2.28px;}.cls-2{fill:#323530;}.cls-3{fill:#1ec610;}</style></defs><g id="Layer_2" data-name="Layer 2"><g id="Layer_1-2" data-name="Layer 1"><rect class="cls-1" x="1.14" y="1.14" width="398.61" height="138.73"/><path class="cls-2" d="M34.32,72.88V44.13h6V48.9a23.78,23.78,0,0,1,4.78-4.23,8.77,8.77,0,0,1,4.78-1.34,9.61,9.61,0,0,1,6.73,2.57,8.17,8.17,0,0,1,2.8,6.21V72.88H53.27v-19a5.25,5.25,0,0,0-5.42-5.41,6.77,6.77,0,0,0-5.27,2.57,9.1,9.1,0,0,0-2.21,6.18V72.88Z"/><path class="cls-2" d="M131,47.43l-4.08,3.46a21.56,21.56,0,0,0-2.75-1.64,6.12,6.12,0,0,0-2.74-.56q-3.72,0-3.72,2.64,0,1.91,4.72,3.69A19,19,0,0,1,129.22,59a7.13,7.13,0,0,1,2.07,5.15,7.94,7.94,0,0,1-3,6.15,10.25,10.25,0,0,1-7,2.63q-6.15,0-10.09-5.5L116,65.14a7.65,7.65,0,0,0,5.27,2.38,5.57,5.57,0,0,0,3.32-1A2.85,2.85,0,0,0,126,64.19c0-1.56-1.67-3-5-4.21s-5.63-2.51-6.91-3.78a6.44,6.44,0,0,1-1.92-4.74,7.33,7.33,0,0,1,2.73-5.81,10.13,10.13,0,0,1,6.83-2.32Q125.89,43.33,131,47.43Z"/><path class="cls-2" d="M159.21,63.55V70.3a18.75,18.75,0,0,1-9.07,2.58,14.67,14.67,0,0,1-10.53-4.36,13.6,13.6,0,0,1-4.52-10.09,14.3,14.3,0,0,1,4.5-10.81,15.7,15.7,0,0,1,11.28-4.29,19.34,19.34,0,0,1,8.34,2v6.58a16.7,16.7,0,0,0-8.72-2.85,9.6,9.6,0,0,0-6.65,2.58,7.92,7.92,0,0,0-2.85,6,9.12,9.12,0,0,0,9.22,9.23Q154.14,66.94,159.21,63.55Z"/><path class="cls-2" d="M194.12,59.24H169.37a9.34,9.34,0,0,0,3.67,6.3,10.75,10.75,0,0,0,6.24,2A11,11,0,0,0,188,63.35l4.46,3.25A16.35,16.35,0,0,1,179,72.88a14.86,14.86,0,0,1-10.83-4.27A14.27,14.27,0,0,1,163.81,58a14,14,0,0,1,4.41-10.29,15.36,15.36,0,0,1,21.5.06A15.27,15.27,0,0,1,194.12,59.24ZM170,54.52h17.72q-3-5.76-8.72-5.77A9.26,9.26,0,0,0,170,54.52Z"/><path class="cls-2" d="M200,72.88V44.13h6V48.9a24.06,24.06,0,0,1,4.78-4.23,8.77,8.77,0,0,1,4.78-1.34,9.59,9.59,0,0,1,6.73,2.57,8.14,8.14,0,0,1,2.8,6.21V72.88H219v-19a5.25,5.25,0,0,0-5.41-5.41,6.78,6.78,0,0,0-5.28,2.57,9.15,9.15,0,0,0-2.21,6.18V72.88Z"/><path class="cls-2" d="M234.65,35.7h6.12v8.38h6v5.55h-6V72.88h-6.12V49.63h-4.82V44h4.82Z"/><path class="cls-2" d="M47.37,92.38h1.77v16.1H47.45V94.65l.17.71-5.13,10.88H41.3L36.16,95.58l.18-.93v13.83H34.65V92.38h1.77L41.89,104Z"/><path class="cls-2" d="M61.84,92.38h2l6.28,16.1H68.29L62.86,94.05l-5.43,14.43H55.56Zm-3.39,10.71h9v1.48h-9Z"/><path class="cls-2" d="M76.82,92.37h1.69v16.11H76.82Zm1,7.82h5.81a3.44,3.44,0,0,0,1.67-.4,2.72,2.72,0,0,0,1.12-1.11,3.54,3.54,0,0,0,.4-1.66,3.42,3.42,0,0,0-.39-1.66,2.7,2.7,0,0,0-1.11-1.11,3.41,3.41,0,0,0-1.69-.4H77.86V92.37h5.72a5.56,5.56,0,0,1,2.6.58,4.12,4.12,0,0,1,1.73,1.63,5.11,5.11,0,0,1,0,4.88,4.09,4.09,0,0,1-1.74,1.63,5.52,5.52,0,0,1-2.59.58H77.86Zm5.46,1,1.56-.51,4.36,7.82h-2Z"/><path class="cls-2" d="M96.54,92.38h1.69v16.1H96.54Zm.82,11.19,9.34-11.19h2.18L98.07,104.8Zm4.81-3.68,1-1.65,6.46,10.24h-2Z"/><path class="cls-2" d="M116.26,92.38h1.68v16.1h-1.68Zm1.16,0h9.78v1.48h-9.78Zm0,7.36h8.49v1.49h-8.49Zm0,7.25h9.78v1.49h-9.78Z"/><path class="cls-2" d="M132.8,92.38h12v1.48h-12ZM138,93h1.69v15.45H138Z"/><path class="cls-2" d="M153.29,108.48H151.6V92.38h1.69Z"/><path class="cls-2" d="M161.94,92.38h1.7l9.89,14.5-.69-.44V92.38h1.69v16.09H172.8L162.71,93.85l.92.63v14h-1.69Z"/><path class="cls-2" d="M194.47,100.25v2.37a7.62,7.62,0,0,1-.66,3.36,4.31,4.31,0,0,1-2,2,7.44,7.44,0,0,1-3.32.66,7.93,7.93,0,0,1-3.36-.63,4.32,4.32,0,0,1-2-1.88,6.74,6.74,0,0,1-.67-3.15V98.23a7.37,7.37,0,0,1,.67-3.35,4.31,4.31,0,0,1,2-2,7.43,7.43,0,0,1,3.32-.67,6.9,6.9,0,0,1,2.85.54,4.7,4.7,0,0,1,2,1.58A6.91,6.91,0,0,1,194.33,97h-1.82a5.71,5.71,0,0,0-.85-1.84,3.57,3.57,0,0,0-1.35-1.1,4.55,4.55,0,0,0-1.87-.36,5.12,5.12,0,0,0-2.38.5,3.2,3.2,0,0,0-1.42,1.51,5.81,5.81,0,0,0-.48,2.52V103a5.06,5.06,0,0,0,.48,2.33,3.11,3.11,0,0,0,1.45,1.39,5.56,5.56,0,0,0,2.42.46,5.08,5.08,0,0,0,2.34-.48,3,3,0,0,0,1.38-1.47,6,6,0,0,0,.46-2.56v-.91h-4.12v-1.49Z"/><path class="cls-2" d="M215.74,108.42a9,9,0,0,1-2.06-.66,9.21,9.21,0,0,1-1.79-1.11l1-1.26a7.56,7.56,0,0,0,2.36,1.33,8.7,8.7,0,0,0,2.8.44,5.94,5.94,0,0,0,3.39-.82,2.62,2.62,0,0,0,1.2-2.3h0a2.06,2.06,0,0,0-.52-1.48,3.4,3.4,0,0,0-1.35-.83,15.61,15.61,0,0,0-2.12-.5l-.08,0-.09,0-.34-.06a24.52,24.52,0,0,1-2.87-.67,4.16,4.16,0,0,1-1.83-1.19,3.31,3.31,0,0,1-.76-2.32h0a4.47,4.47,0,0,1,.71-2.55,4.35,4.35,0,0,1,2.07-1.61,8.59,8.59,0,0,1,3.27-.56,8.9,8.9,0,0,1,1.78.19,9.37,9.37,0,0,1,1.75.56,11.16,11.16,0,0,1,1.71.94l-1,1.25a9.14,9.14,0,0,0-2.16-1.09,6.37,6.37,0,0,0-2.08-.36,5.43,5.43,0,0,0-3.24.83,2.72,2.72,0,0,0-1.15,2.33v0a1.86,1.86,0,0,0,.58,1.43,3.62,3.62,0,0,0,1.42.78,22.45,22.45,0,0,0,2.33.53l.1,0,.11,0,.13,0,.14,0a16.8,16.8,0,0,1,2.67.71,4.22,4.22,0,0,1,1.78,1.24,3.48,3.48,0,0,1,.71,2.29v0a4.29,4.29,0,0,1-.74,2.52,4.6,4.6,0,0,1-2.14,1.6,9.4,9.4,0,0,1-3.38.54A11.59,11.59,0,0,1,215.74,108.42Z"/><path class="cls-2" d="M233.73,108a4.76,4.76,0,0,1-2-2,6.79,6.79,0,0,1-.71-3.21V98.15a6.74,6.74,0,0,1,.71-3.21,4.76,4.76,0,0,1,2-2,7.85,7.85,0,0,1,6.48,0,4.73,4.73,0,0,1,2,2,6.74,6.74,0,0,1,.7,3.21v4.56a6.79,6.79,0,0,1-.7,3.21,4.73,4.73,0,0,1-2,2,8,8,0,0,1-6.48,0Zm5.57-1.3a3.55,3.55,0,0,0,1.47-1.5,5.17,5.17,0,0,0,.5-2.36V98.07a5.17,5.17,0,0,0-.5-2.36,3.49,3.49,0,0,0-1.47-1.5,5.55,5.55,0,0,0-4.65,0,3.38,3.38,0,0,0-1.47,1.5,5,5,0,0,0-.51,2.36v4.72a5,5,0,0,0,.51,2.36,3.44,3.44,0,0,0,1.47,1.5,5.55,5.55,0,0,0,4.65,0Z"/><path class="cls-2" d="M250.67,92.38h1.69v16.1h-1.69Zm1.2,14.61h9.75v1.49h-9.75Z"/><path class="cls-2" d="M270.46,108a4.28,4.28,0,0,1-2-1.95,7.21,7.21,0,0,1-.66-3.27V92.38h1.69v10.46a4.27,4.27,0,0,0,1.06,3.17,4.39,4.39,0,0,0,3.22,1.06A4.44,4.44,0,0,0,277,106a4.24,4.24,0,0,0,1.08-3.17V92.38h1.68v10.39a7.21,7.21,0,0,1-.66,3.27,4.25,4.25,0,0,1-2,1.95,7.5,7.5,0,0,1-3.34.65A7.41,7.41,0,0,1,270.46,108Z"/><path class="cls-2" d="M285.51,92.38h12v1.48h-12Zm5.16.65h1.69v15.45h-1.69Z"/><path class="cls-2" d="M306,108.48H304.3V92.38H306Z"/><path class="cls-2" d="M317,108a4.73,4.73,0,0,1-2.05-2,6.79,6.79,0,0,1-.7-3.21V98.15a6.74,6.74,0,0,1,.7-3.21,4.73,4.73,0,0,1,2.05-2,7.85,7.85,0,0,1,6.48,0,4.76,4.76,0,0,1,2,2,6.74,6.74,0,0,1,.71,3.21v4.56a6.79,6.79,0,0,1-.71,3.21,4.76,4.76,0,0,1-2,2,8,8,0,0,1-6.48,0Zm5.56-1.3a3.44,3.44,0,0,0,1.47-1.5,5,5,0,0,0,.51-2.36V98.07a5,5,0,0,0-.51-2.36,3.38,3.38,0,0,0-1.47-1.5,5.55,5.55,0,0,0-4.65,0,3.49,3.49,0,0,0-1.47,1.5,5.17,5.17,0,0,0-.5,2.36v4.72a5.17,5.17,0,0,0,.5,2.36,3.55,3.55,0,0,0,1.47,1.5,5.55,5.55,0,0,0,4.65,0Z"/><path class="cls-2" d="M334,92.38h1.7l9.89,14.5-.69-.44V92.38h1.68v16.09h-1.72L334.75,93.85l.92.63v14H334Z"/><path class="cls-2" d="M357.65,108.42a8.77,8.77,0,0,1-3.84-1.77l1-1.26a7.51,7.51,0,0,0,2.35,1.33,8.74,8.74,0,0,0,2.8.44,6,6,0,0,0,3.4-.82,2.62,2.62,0,0,0,1.2-2.3h0a2.1,2.1,0,0,0-.52-1.48,3.4,3.4,0,0,0-1.35-.83,15.44,15.44,0,0,0-2.13-.5l-.07,0-.09,0-.34-.06a24,24,0,0,1-2.87-.67,4.25,4.25,0,0,1-1.84-1.19,3.35,3.35,0,0,1-.75-2.32h0a4.4,4.4,0,0,1,.71-2.55,4.35,4.35,0,0,1,2.07-1.61,8.58,8.58,0,0,1,3.26-.56,8.92,8.92,0,0,1,1.79.19,9.61,9.61,0,0,1,1.75.56,10.62,10.62,0,0,1,1.7.94l-1,1.25a9.53,9.53,0,0,0-2.16-1.09,6.43,6.43,0,0,0-2.09-.36,5.4,5.4,0,0,0-3.23.83,2.7,2.7,0,0,0-1.15,2.33v0a1.83,1.83,0,0,0,.58,1.43,3.55,3.55,0,0,0,1.42.78,22.45,22.45,0,0,0,2.33.53l.1,0,.11,0,.13,0,.14,0a16.8,16.8,0,0,1,2.67.71,4.13,4.13,0,0,1,1.77,1.24,3.43,3.43,0,0,1,.71,2.29v0a4.22,4.22,0,0,1-.74,2.52,4.57,4.57,0,0,1-2.13,1.6,9.45,9.45,0,0,1-3.39.54A11.66,11.66,0,0,1,357.65,108.42Z"/><path class="cls-2" d="M95.39,49q-2.06,2.41-4.22,4.64l-.54-1.15L85.35,41.16,80.12,52.53l-1.94,4.2-2.28,5-1.31,2.85L73,68a74.17,74.17,0,0,1-8.3,4.19L85.36,27.52Z"/><path class="cls-2" d="M106.51,72.88H100.1l-3.87-8.33-1-2.09c1.55-1.18,3.11-2.43,4.65-3.75Z"/><path class="cls-3" d="M107.14,49A101.12,101.12,0,0,1,85.73,66.35,76.39,76.39,0,0,1,63,75.11,80.83,80.83,0,0,0,84.27,62.73a97.47,97.47,0,0,0,17.86-18.88Z"/><path class="cls-3" d="M108.34,55.85,95.73,44l5.59-1.7,7.24-2.21Z"/><path class="cls-2" d="M250.11,58.09a4.12,4.12,0,0,1,8.24,0,4.13,4.13,0,0,1-7,2.93A3.93,3.93,0,0,1,250.11,58.09Z"/><path class="cls-2" d="M202.74,101.3a1.28,1.28,0,0,1,.38-.92,1.29,1.29,0,0,1,1.83,0,1.3,1.3,0,0,1-1.83,1.84A1.26,1.26,0,0,1,202.74,101.3Z"/><path class="cls-2" d="M358.76,34.36A4.07,4.07,0,0,1,360,31.42a4.14,4.14,0,0,1,5.89,0,4.05,4.05,0,0,1,1.24,2.94,4.18,4.18,0,0,1-4.18,4.17,4.13,4.13,0,0,1-4.17-4.17Z"/><path class="cls-3" d="M288.34,43.89h6.12v29h-6.12V67.13c-3,4.38-6.67,6.57-11.07,6.57a12.71,12.71,0,0,1-9.79-4.5,15.71,15.71,0,0,1-4.06-10.93,15.41,15.41,0,0,1,4.09-10.64,12.58,12.58,0,0,1,9.62-4.55,12.27,12.27,0,0,1,6.47,1.86,13.19,13.19,0,0,1,4.74,4.85Zm.85,14.59a9.23,9.23,0,0,0-2.86-6.81,9.58,9.58,0,0,0-13.59,0,8.9,8.9,0,0,0-2.89,6.61,9.62,9.62,0,0,0,2.82,7,9.2,9.2,0,0,0,6.83,2.89,9.78,9.78,0,0,0,9.69-9.67Z"/><path class="cls-3" d="M325.12,43.89h6V71.73a14.34,14.34,0,0,1-4.24,10.46,13.84,13.84,0,0,1-10.24,4.31A15.21,15.21,0,0,1,308.21,84a14.29,14.29,0,0,1-5.62-7.54h6.33a8.82,8.82,0,0,0,7.91,4.71,7.94,7.94,0,0,0,5.87-2.48,8.2,8.2,0,0,0,2.42-6V67.27q-4.42,6.44-11.18,6.43a12.64,12.64,0,0,1-9.68-4.59,15.68,15.68,0,0,1-4.13-10.84,15.48,15.48,0,0,1,4-10.73,12.51,12.51,0,0,1,9.58-4.46q7.17,0,11.39,6.92ZM326,58.34a9.12,9.12,0,0,0-2.83-6.82,9.7,9.7,0,0,0-7-2.75,9.39,9.39,0,0,0-6.75,2.85,8.94,8.94,0,0,0-2.91,6.58,9.58,9.58,0,0,0,2.88,7,9.32,9.32,0,0,0,6.85,2.91A9.75,9.75,0,0,0,326,58.34Z"/><path class="cls-3" d="M344.85,43.89v6a18.66,18.66,0,0,1,4-5.18,7.76,7.76,0,0,1,5.08-1.6,11.27,11.27,0,0,1,2.54.42l-1.87,6.12a14.34,14.34,0,0,0-2.32-.35,6.91,6.91,0,0,0-5.18,2.16A7.42,7.42,0,0,0,345,56.82V72.89h-6.12v-29Z"/><path class="cls-3" d="M358.22,34.36a4.47,4.47,0,0,1,1.41-3.29A4.62,4.62,0,0,1,363,29.68a4.73,4.73,0,0,1,4.67,4.68,4.47,4.47,0,0,1-1.38,3.3A4.53,4.53,0,0,1,363,39a4.61,4.61,0,0,1-3.34-1.38A4.42,4.42,0,0,1,358.22,34.36Zm1.72,9.53H366v29h-6.05Z"/><line class="cls-4" x1="34.32" y1="82.55" x2="295.19" y2="82.55"/><line class="cls-4" x1="335.99" y1="81.55" x2="366.06" y2="81.55"/></g></g></svg>